<mxfile host="65bd71144e">
    <diagram id="Wr2g1ttwK0UKFfqwhJe3" name="Страница 1">
        <mxGraphModel dx="1874" dy="1071" grid="1" gridSize="10" guides="1" tooltips="1" connect="1" arrows="1" fold="1" page="0" pageScale="1" pageWidth="827" pageHeight="1169" background="none" math="0" shadow="0">
            <root>
                <mxCell id="0"/>
                <mxCell id="1" parent="0"/>
                <mxCell id="node7" value="&lt;p style=&quot;margin:0px;margin-top:4px;text-align:center;&quot;&gt;&lt;b&gt;character&lt;/b&gt;&lt;/p&gt;&lt;hr size=&quot;1&quot;&gt;&lt;p style=&quot;margin:0 0 0 4px;line-height:1.6;&quot;&gt; type_id&lt;br&gt; name  &lt;br&gt; birthday  &lt;br&gt; history&lt;br&gt; sex_id&lt;br&gt; place_of_living_id&lt;br&gt; location_id&lt;br&gt; group&lt;br&gt; favor_id  &lt;/p&gt;" style="verticalAlign=top;align=left;overflow=fill;fontSize=14;fontFamily=Helvetica;html=1;rounded=0;shadow=0;comic=0;labelBackgroundColor=none;strokeWidth=1;" parent="1" vertex="1">
                    <mxGeometry x="13" y="33" width="237" height="247" as="geometry"/>
                </mxCell>
                <mxCell id="node5" value="&lt;p style=&quot;margin: 0px ; margin-top: 4px ; text-align: center&quot;&gt;&lt;b&gt;court&lt;/b&gt;&lt;/p&gt;&lt;hr size=&quot;1&quot;&gt;&lt;p style=&quot;margin: 0 0 0 4px ; line-height: 1.6&quot;&gt; location_id &lt;br&gt; verdict &lt;br&gt;&lt;/p&gt;&lt;p style=&quot;margin: 0 0 0 4px ; line-height: 1.6&quot;&gt;date &lt;br&gt;group_id&lt;br&gt;defendant_id&lt;br&gt;&lt;/p&gt;" style="verticalAlign=top;align=left;overflow=fill;fontSize=14;fontFamily=Helvetica;html=1;rounded=0;shadow=0;comic=0;labelBackgroundColor=none;strokeWidth=1;" parent="1" vertex="1">
                    <mxGeometry x="-172" y="-40" width="152" height="150" as="geometry"/>
                </mxCell>
                <mxCell id="node0" value="&lt;p style=&quot;margin:0px;margin-top:4px;text-align:center;&quot;&gt;&lt;b&gt;favor&lt;/b&gt;&lt;/p&gt;&lt;hr size=&quot;1&quot;&gt;&lt;p style=&quot;margin:0 0 0 4px;line-height:1.6;&quot;&gt; sex_id&lt;br&gt; age_min   &lt;br&gt; age_max   &lt;/p&gt;" style="verticalAlign=top;align=left;overflow=fill;fontSize=14;fontFamily=Helvetica;html=1;rounded=0;shadow=0;comic=0;labelBackgroundColor=none;strokeWidth=1;" parent="1" vertex="1">
                    <mxGeometry x="488" y="-72" width="138" height="105" as="geometry"/>
                </mxCell>
                <mxCell id="node6" value="&lt;p style=&quot;margin:0px;margin-top:4px;text-align:center;&quot;&gt;&lt;b&gt;group&lt;/b&gt;&lt;/p&gt;&lt;hr size=&quot;1&quot;&gt;&lt;p style=&quot;margin:0 0 0 4px;line-height:1.6;&quot;&gt; location_id&lt;br&gt; admin_id   &lt;/p&gt;" style="verticalAlign=top;align=left;overflow=fill;fontSize=14;fontFamily=Helvetica;html=1;rounded=0;shadow=0;comic=0;labelBackgroundColor=none;strokeWidth=1;" parent="1" vertex="1">
                    <mxGeometry x="130" y="-330" width="152" height="81" as="geometry"/>
                </mxCell>
                <mxCell id="node2" value="&lt;p style=&quot;margin:0px;margin-top:4px;text-align:center;&quot;&gt;&lt;b&gt;location&lt;/b&gt;&lt;/p&gt;&lt;hr size=&quot;1&quot;&gt;&lt;p style=&quot;margin:0 0 0 4px;line-height:1.6;&quot;&gt; lat&lt;br&gt; lon   &lt;br&gt; name: varchar&lt;br&gt; is_place_of_living&lt;br&gt;&lt;/p&gt;" style="verticalAlign=top;align=left;overflow=fill;fontSize=14;fontFamily=Helvetica;html=1;rounded=0;shadow=0;comic=0;labelBackgroundColor=none;strokeWidth=1;" parent="1" vertex="1">
                    <mxGeometry x="-311" y="-287" width="203" height="129" as="geometry"/>
                </mxCell>
                <mxCell id="node9" value="&lt;p style=&quot;margin:0px;margin-top:4px;text-align:center;&quot;&gt;&lt;b&gt;location_history&lt;/b&gt;&lt;/p&gt;&lt;hr size=&quot;1&quot;&gt;&lt;p style=&quot;margin:0 0 0 4px;line-height:1.6;&quot;&gt; character_id&lt;br&gt; location_id   &lt;br&gt; visit_time: &lt;br&gt;&lt;/p&gt;" style="verticalAlign=top;align=left;overflow=fill;fontSize=14;fontFamily=Helvetica;html=1;rounded=0;shadow=0;comic=0;labelBackgroundColor=none;strokeWidth=1;" parent="1" vertex="1">
                    <mxGeometry x="-390" y="250" width="165" height="105" as="geometry"/>
                </mxCell>
                <mxCell id="node8" value="&lt;p style=&quot;margin:0px;margin-top:4px;text-align:center;&quot;&gt;&lt;b&gt;murder&lt;/b&gt;&lt;/p&gt;&lt;hr size=&quot;1&quot;&gt;&lt;p style=&quot;margin:0 0 0 4px;line-height:1.6;&quot;&gt; killer_id&lt;br&gt; victim   &lt;br&gt; description  &lt;br&gt;&lt;/p&gt;" style="verticalAlign=top;align=left;overflow=fill;fontSize=14;fontFamily=Helvetica;html=1;rounded=0;shadow=0;comic=0;labelBackgroundColor=none;strokeWidth=1;" parent="1" vertex="1">
                    <mxGeometry x="73" y="510" width="156" height="105" as="geometry"/>
                </mxCell>
                <mxCell id="node1" value="&lt;p style=&quot;margin:0px;margin-top:4px;text-align:center;&quot;&gt;&lt;b&gt;passes&lt;/b&gt;&lt;/p&gt;&lt;hr size=&quot;1&quot;&gt;&lt;p style=&quot;margin:0 0 0 4px;line-height:1.6;&quot;&gt; character_id&lt;br&gt; location_id   &lt;/p&gt;" style="verticalAlign=top;align=left;overflow=fill;fontSize=14;fontFamily=Helvetica;html=1;rounded=0;shadow=0;comic=0;labelBackgroundColor=none;strokeWidth=1;" parent="1" vertex="1">
                    <mxGeometry x="-300" y="439" width="162" height="81" as="geometry"/>
                </mxCell>
                <mxCell id="node11" value="&lt;p style=&quot;margin:0px;margin-top:4px;text-align:center;&quot;&gt;&lt;b&gt;sex&lt;/b&gt;&lt;/p&gt;&lt;hr size=&quot;1&quot;&gt;&lt;p style=&quot;margin:0 0 0 4px;line-height:1.6;&quot;&gt; name&lt;br&gt;&lt;/p&gt;" style="verticalAlign=top;align=left;overflow=fill;fontSize=14;fontFamily=Helvetica;html=1;rounded=0;shadow=0;comic=0;labelBackgroundColor=none;strokeWidth=1;" parent="1" vertex="1">
                    <mxGeometry x="610" y="170" width="118" height="57" as="geometry"/>
                </mxCell>
                <mxCell id="node10" value="&lt;p style=&quot;margin:0px;margin-top:4px;text-align:center;&quot;&gt;&lt;b&gt;type&lt;/b&gt;&lt;/p&gt;&lt;hr size=&quot;1&quot;&gt;&lt;p style=&quot;margin:0 0 0 4px;line-height:1.6;&quot;&gt; name&lt;br&gt;&lt;/p&gt;" style="verticalAlign=top;align=left;overflow=fill;fontSize=14;fontFamily=Helvetica;html=1;rounded=0;shadow=0;comic=0;labelBackgroundColor=none;strokeWidth=1;" parent="1" vertex="1">
                    <mxGeometry x="313" y="-116" width="118" height="57" as="geometry"/>
                </mxCell>
                <mxCell id="node4" value="&lt;p style=&quot;margin:0px;margin-top:4px;text-align:center;&quot;&gt;&lt;b&gt;vampire_to_servant&lt;/b&gt;&lt;/p&gt;&lt;hr size=&quot;1&quot;&gt;&lt;p style=&quot;margin:0 0 0 4px;line-height:1.6;&quot;&gt; servant_id&lt;br&gt; vampire_id   &lt;/p&gt;" style="verticalAlign=top;align=left;overflow=fill;fontSize=14;fontFamily=Helvetica;html=1;rounded=0;shadow=0;comic=0;labelBackgroundColor=none;strokeWidth=1;" parent="1" vertex="1">
                    <mxGeometry x="461" y="409" width="192" height="81" as="geometry"/>
                </mxCell>
                <mxCell id="edge8" value="" style="html=1;rounded=1;edgeStyle=orthogonalEdgeStyle;dashed=0;startArrow=ERzeroToMany;endArrow=ERmandOne;endSize=22;strokeColor=#595959;exitX=1;exitY=0.5;exitDx=0;exitDy=0;entryX=0.171;entryY=1.012;entryDx=0;entryDy=0;entryPerimeter=0;startFill=0;startSize=17;endFill=0;strokeWidth=4;" parent="1" source="node7" target="node0" edge="1">
                    <mxGeometry width="50" height="50" relative="1" as="geometry">
                        <Array as="points">
                            <mxPoint x="512" y="157"/>
                        </Array>
                    </mxGeometry>
                </mxCell>
                <mxCell id="9" value="иметь" style="edgeLabel;html=1;align=center;verticalAlign=middle;resizable=0;points=[];" vertex="1" connectable="0" parent="edge8">
                    <mxGeometry x="-0.2028" y="5" relative="1" as="geometry">
                        <mxPoint y="1" as="offset"/>
                    </mxGeometry>
                </mxCell>
                <mxCell id="edge19" value="" style="html=1;rounded=1;edgeStyle=orthogonalEdgeStyle;dashed=0;startArrow=ERzeroToMany;endArrow=ERmandOne;endSize=22;strokeColor=#595959;startFill=0;startSize=17;endFill=0;strokeWidth=4;" parent="1" target="node6" edge="1">
                    <mxGeometry width="50" height="50" relative="1" as="geometry">
                        <Array as="points">
                            <mxPoint x="180" y="-170"/>
                            <mxPoint x="180" y="-170"/>
                        </Array>
                        <mxPoint x="180" y="30" as="sourcePoint"/>
                        <mxPoint x="180" y="-190" as="targetPoint"/>
                    </mxGeometry>
                </mxCell>
                <mxCell id="5" value="быть членом" style="edgeLabel;html=1;align=center;verticalAlign=middle;resizable=0;points=[];" vertex="1" connectable="0" parent="edge19">
                    <mxGeometry x="0.147" y="4" relative="1" as="geometry">
                        <mxPoint as="offset"/>
                    </mxGeometry>
                </mxCell>
                <mxCell id="edge14" value="" style="html=1;rounded=1;edgeStyle=orthogonalEdgeStyle;dashed=0;startArrow=ERzeroToMany;endArrow=ERmandOne;endSize=22;strokeColor=#595959;entryX=1;entryY=0.5;entryDx=0;entryDy=0;startFill=0;startSize=17;endFill=0;strokeWidth=4;" parent="1" source="node7" target="node2" edge="1">
                    <mxGeometry width="50" height="50" relative="1" as="geometry">
                        <Array as="points">
                            <mxPoint x="90" y="-223"/>
                        </Array>
                        <mxPoint x="90" y="10" as="sourcePoint"/>
                    </mxGeometry>
                </mxCell>
                <mxCell id="4" value="жить " style="edgeLabel;html=1;align=center;verticalAlign=middle;resizable=0;points=[];" vertex="1" connectable="0" parent="edge14">
                    <mxGeometry x="0.1753" y="1" relative="1" as="geometry">
                        <mxPoint as="offset"/>
                    </mxGeometry>
                </mxCell>
                <mxCell id="edge15" value="" style="html=1;rounded=1;edgeStyle=orthogonalEdgeStyle;dashed=0;startArrow=ERzeroToMany;endArrow=ERmandOne;endSize=22;strokeColor=#595959;startFill=0;startSize=17;endFill=0;strokeWidth=4;" parent="1" source="node7" edge="1">
                    <mxGeometry width="50" height="50" relative="1" as="geometry">
                        <Array as="points">
                            <mxPoint x="40" y="-200"/>
                        </Array>
                        <mxPoint x="-108" y="-200" as="targetPoint"/>
                    </mxGeometry>
                </mxCell>
                <mxCell id="3" value="находится" style="edgeLabel;html=1;align=center;verticalAlign=middle;resizable=0;points=[];" vertex="1" connectable="0" parent="edge15">
                    <mxGeometry x="-0.0184" y="-3" relative="1" as="geometry">
                        <mxPoint as="offset"/>
                    </mxGeometry>
                </mxCell>
                <mxCell id="edge3" value="" style="html=1;rounded=1;edgeStyle=orthogonalEdgeStyle;dashed=0;startArrow=ERzeroToMany;endArrow=ERmandOne;endSize=22;strokeColor=#595959;exitX=1.000;exitY=0.769;exitDx=0;exitDy=0;entryX=0.000;entryY=0.500;entryDx=0;entryDy=0;startFill=0;startSize=17;endFill=0;strokeWidth=4;" parent="1" source="node7" target="node11" edge="1">
                    <mxGeometry width="50" height="50" relative="1" as="geometry">
                        <Array as="points">
                            <mxPoint x="450" y="223"/>
                            <mxPoint x="450" y="198"/>
                        </Array>
                    </mxGeometry>
                </mxCell>
                <mxCell id="22" value="иметь гендер" style="edgeLabel;html=1;align=center;verticalAlign=middle;resizable=0;points=[];" vertex="1" connectable="0" parent="edge3">
                    <mxGeometry x="-0.1675" y="-3" relative="1" as="geometry">
                        <mxPoint as="offset"/>
                    </mxGeometry>
                </mxCell>
                <mxCell id="edge13" value="" style="html=1;rounded=1;edgeStyle=orthogonalEdgeStyle;dashed=0;startArrow=ERzeroToMany;endArrow=ERmandOne;endSize=22;strokeColor=#595959;exitX=1;exitY=0.25;exitDx=0;exitDy=0;entryX=0.500;entryY=1.000;entryDx=0;entryDy=0;startFill=0;startSize=17;endFill=0;strokeWidth=4;" parent="1" source="node7" target="node10" edge="1">
                    <mxGeometry width="50" height="50" relative="1" as="geometry">
                        <Array as="points">
                            <mxPoint x="372" y="95"/>
                        </Array>
                    </mxGeometry>
                </mxCell>
                <mxCell id="8" value="быть (тип)" style="edgeLabel;html=1;align=center;verticalAlign=middle;resizable=0;points=[];" vertex="1" connectable="0" parent="edge13">
                    <mxGeometry x="0.3111" y="2" relative="1" as="geometry">
                        <mxPoint as="offset"/>
                    </mxGeometry>
                </mxCell>
                <mxCell id="edge11" value="" style="html=1;rounded=1;edgeStyle=orthogonalEdgeStyle;dashed=0;startArrow=ERzeroToMany;endArrow=ERmandOne;endSize=22;strokeColor=#595959;exitX=0.376;exitY=0.001;exitDx=0;exitDy=0;entryX=0.963;entryY=1.000;entryDx=0;entryDy=0;startSize=17;strokeWidth=4;startFill=0;endFill=0;" parent="1" source="node5" target="node2" edge="1">
                    <mxGeometry width="50" height="50" relative="1" as="geometry">
                        <Array as="points"/>
                    </mxGeometry>
                </mxCell>
                <mxCell id="edge10" value="" style="html=1;rounded=1;edgeStyle=orthogonalEdgeStyle;dashed=0;startArrow=ERzeroToMany;endArrow=ERmandOne;endSize=22;strokeColor=#595959;exitX=0.609;exitY=1.000;exitDx=0;exitDy=0;entryX=0.542;entryY=0.001;entryDx=0;entryDy=0;startFill=0;startSize=17;endFill=0;strokeWidth=4;" parent="1" source="node0" target="node11" edge="1">
                    <mxGeometry width="50" height="50" relative="1" as="geometry">
                        <Array as="points"/>
                    </mxGeometry>
                </mxCell>
                <mxCell id="edge5" value="" style="html=1;rounded=1;edgeStyle=orthogonalEdgeStyle;dashed=0;startArrow=none;endArrow=ERmandOne;endSize=22;strokeColor=#595959;entryX=0.962;entryY=0.000;entryDx=0;entryDy=0;startFill=0;startSize=17;endFill=0;strokeWidth=4;" parent="1" target="node7" edge="1">
                    <mxGeometry width="50" height="50" relative="1" as="geometry">
                        <Array as="points">
                            <mxPoint x="241" y="-249"/>
                        </Array>
                        <mxPoint x="241" y="-249" as="sourcePoint"/>
                    </mxGeometry>
                </mxCell>
                <mxCell id="6" value="быть админом" style="edgeLabel;html=1;align=center;verticalAlign=middle;resizable=0;points=[];" vertex="1" connectable="0" parent="edge5">
                    <mxGeometry x="-0.2057" y="-3" relative="1" as="geometry">
                        <mxPoint y="-13" as="offset"/>
                    </mxGeometry>
                </mxCell>
                <mxCell id="edge12" value="" style="html=1;rounded=1;edgeStyle=orthogonalEdgeStyle;dashed=0;startArrow=ERzeroToMany;endArrow=ERmandOne;endSize=22;strokeColor=#595959;entryX=1.000;entryY=0.195;entryDx=0;entryDy=0;exitX=0;exitY=0.5;exitDx=0;exitDy=0;startFill=0;startSize=17;endFill=0;strokeWidth=4;" parent="1" source="node6" target="node2" edge="1">
                    <mxGeometry width="50" height="50" relative="1" as="geometry">
                        <Array as="points"/>
                        <mxPoint x="160" y="-262" as="sourcePoint"/>
                    </mxGeometry>
                </mxCell>
                <mxCell id="15" value="собираться в" style="edgeLabel;html=1;align=center;verticalAlign=middle;resizable=0;points=[];" vertex="1" connectable="0" parent="edge12">
                    <mxGeometry x="0.0651" y="-5" relative="1" as="geometry">
                        <mxPoint y="1" as="offset"/>
                    </mxGeometry>
                </mxCell>
                <mxCell id="edge18" value="" style="html=1;rounded=1;edgeStyle=orthogonalEdgeStyle;dashed=0;startArrow=ERzeroToMany;endArrow=ERmandOne;endSize=22;strokeColor=#595959;exitX=1.000;exitY=0.809;exitDx=0;exitDy=0;entryX=0.000;entryY=0.500;entryDx=0;entryDy=0;startFill=0;startSize=17;endFill=0;strokeWidth=4;" parent="1" source="node9" target="node7" edge="1">
                    <mxGeometry width="50" height="50" relative="1" as="geometry">
                        <Array as="points">
                            <mxPoint x="-76" y="335"/>
                            <mxPoint x="-76" y="157"/>
                        </Array>
                    </mxGeometry>
                </mxCell>
                <mxCell id="10" value="перемещаться" style="edgeLabel;html=1;align=center;verticalAlign=middle;resizable=0;points=[];" vertex="1" connectable="0" parent="edge18">
                    <mxGeometry x="0.1201" relative="1" as="geometry">
                        <mxPoint y="1" as="offset"/>
                    </mxGeometry>
                </mxCell>
                <mxCell id="edge2" value="" style="html=1;rounded=1;edgeStyle=orthogonalEdgeStyle;dashed=0;startArrow=ERzeroToMany;endArrow=ERmandOne;endSize=22;strokeColor=#595959;exitX=0.25;exitY=0;exitDx=0;exitDy=0;entryX=0.552;entryY=1.000;entryDx=0;entryDy=0;startFill=0;startSize=17;endFill=0;strokeWidth=4;" parent="1" source="node9" target="node2" edge="1">
                    <mxGeometry width="50" height="50" relative="1" as="geometry">
                        <Array as="points"/>
                    </mxGeometry>
                </mxCell>
                <mxCell id="edge6" value="" style="html=1;rounded=1;edgeStyle=orthogonalEdgeStyle;dashed=0;startArrow=ERzeroToMany;endArrow=ERmandOne;endSize=22;strokeColor=#595959;exitX=0.500;exitY=0.000;exitDx=0;exitDy=0;entryX=0.585;entryY=1.006;entryDx=0;entryDy=0;entryPerimeter=0;startFill=0;startSize=17;endFill=0;strokeWidth=4;" parent="1" source="node8" target="node7" edge="1">
                    <mxGeometry width="50" height="50" relative="1" as="geometry">
                        <Array as="points"/>
                    </mxGeometry>
                </mxCell>
                <mxCell id="17" value="убить" style="edgeLabel;html=1;align=center;verticalAlign=middle;resizable=0;points=[];" vertex="1" connectable="0" parent="edge6">
                    <mxGeometry x="0.1226" y="-4" relative="1" as="geometry">
                        <mxPoint as="offset"/>
                    </mxGeometry>
                </mxCell>
                <mxCell id="edge9" value="" style="html=1;rounded=1;edgeStyle=orthogonalEdgeStyle;dashed=0;startArrow=ERzeroToMany;endArrow=ERmandOne;endSize=22;strokeColor=#595959;startFill=0;startSize=17;endFill=0;strokeWidth=4;exitX=0.819;exitY=-0.012;exitDx=0;exitDy=0;exitPerimeter=0;" parent="1" source="node8" edge="1">
                    <mxGeometry width="50" height="50" relative="1" as="geometry">
                        <Array as="points">
                            <mxPoint x="201" y="330"/>
                            <mxPoint x="201" y="330"/>
                        </Array>
                        <mxPoint x="200" y="470" as="sourcePoint"/>
                        <mxPoint x="201" y="280" as="targetPoint"/>
                    </mxGeometry>
                </mxCell>
                <mxCell id="18" value="быть убитым" style="edgeLabel;html=1;align=center;verticalAlign=middle;resizable=0;points=[];" vertex="1" connectable="0" parent="edge9">
                    <mxGeometry x="0.1694" y="-2" relative="1" as="geometry">
                        <mxPoint as="offset"/>
                    </mxGeometry>
                </mxCell>
                <mxCell id="edge16" value="" style="html=1;rounded=1;edgeStyle=orthogonalEdgeStyle;dashed=0;startArrow=ERzeroToMany;endArrow=ERmandOne;endSize=22;strokeColor=#595959;exitX=1.000;exitY=0.224;exitDx=0;exitDy=0;startFill=0;startSize=17;endFill=0;strokeWidth=4;" parent="1" source="node1" edge="1">
                    <mxGeometry width="50" height="50" relative="1" as="geometry">
                        <Array as="points">
                            <mxPoint x="-110" y="457"/>
                            <mxPoint x="-110" y="456"/>
                            <mxPoint x="127" y="456"/>
                        </Array>
                        <mxPoint x="127" y="280" as="targetPoint"/>
                    </mxGeometry>
                </mxCell>
                <mxCell id="16" value="иметь пропуск в" style="edgeLabel;html=1;align=center;verticalAlign=middle;resizable=0;points=[];" vertex="1" connectable="0" parent="edge16">
                    <mxGeometry x="-0.1536" relative="1" as="geometry">
                        <mxPoint as="offset"/>
                    </mxGeometry>
                </mxCell>
                <mxCell id="edge17" value="" style="html=1;rounded=1;edgeStyle=orthogonalEdgeStyle;dashed=0;startArrow=ERzeroToMany;endArrow=ERmandOne;endSize=22;strokeColor=#595959;exitX=0.000;exitY=0.500;exitDx=0;exitDy=0;entryX=0;entryY=0.5;entryDx=0;entryDy=0;startFill=0;startSize=17;endFill=0;strokeWidth=4;" parent="1" source="node1" target="node2" edge="1">
                    <mxGeometry width="50" height="50" relative="1" as="geometry">
                        <Array as="points">
                            <mxPoint x="-400" y="479"/>
                            <mxPoint x="-400" y="-222"/>
                        </Array>
                    </mxGeometry>
                </mxCell>
                <mxCell id="edge1" value="" style="html=1;rounded=1;edgeStyle=orthogonalEdgeStyle;dashed=0;startArrow=none;endArrow=ERmandOne;endSize=22;strokeColor=#595959;exitX=0.500;exitY=0.001;exitDx=0;exitDy=0;entryX=1.000;entryY=0.961;entryDx=0;entryDy=0;startFill=0;startSize=17;endFill=0;strokeWidth=4;" parent="1" source="node4" target="node7" edge="1">
                    <mxGeometry width="50" height="50" relative="1" as="geometry">
                        <Array as="points">
                            <mxPoint x="557" y="270"/>
                        </Array>
                    </mxGeometry>
                </mxCell>
                <mxCell id="20" value="быть слугой" style="edgeLabel;html=1;align=center;verticalAlign=middle;resizable=0;points=[];" vertex="1" connectable="0" parent="edge1">
                    <mxGeometry x="0.1382" y="1" relative="1" as="geometry">
                        <mxPoint as="offset"/>
                    </mxGeometry>
                </mxCell>
                <mxCell id="edge7" value="" style="html=1;rounded=1;edgeStyle=orthogonalEdgeStyle;dashed=0;startArrow=ERzeroToMany;endArrow=ERmandOne;endSize=22;strokeColor=#595959;exitX=0.000;exitY=0.420;exitDx=0;exitDy=0;entryX=0.876;entryY=1.000;entryDx=0;entryDy=0;startFill=0;startSize=17;endFill=0;strokeWidth=4;" parent="1" source="node4" target="node7" edge="1">
                    <mxGeometry width="50" height="50" relative="1" as="geometry">
                        <Array as="points">
                            <mxPoint x="221" y="443"/>
                        </Array>
                    </mxGeometry>
                </mxCell>
                <mxCell id="19" value="иметь слуг" style="edgeLabel;html=1;align=center;verticalAlign=middle;resizable=0;points=[];" vertex="1" connectable="0" parent="edge7">
                    <mxGeometry x="-0.3307" relative="1" as="geometry">
                        <mxPoint as="offset"/>
                    </mxGeometry>
                </mxCell>
                <mxCell id="27" value="" style="html=1;rounded=1;edgeStyle=orthogonalEdgeStyle;dashed=0;startArrow=ERzeroToMany;endArrow=ERmandOne;endSize=22;strokeColor=#595959;startFill=0;startSize=17;endFill=0;strokeWidth=4;exitX=0.25;exitY=1;exitDx=0;exitDy=0;" edge="1" parent="1" source="node5" target="node7">
                    <mxGeometry width="50" height="50" relative="1" as="geometry">
                        <Array as="points">
                            <mxPoint x="-134" y="230"/>
                        </Array>
                        <mxPoint x="97" y="298.63" as="sourcePoint"/>
                        <mxPoint x="-210" y="159.99699999999996" as="targetPoint"/>
                    </mxGeometry>
                </mxCell>
                <mxCell id="28" value="быть подсудимым" style="edgeLabel;html=1;align=center;verticalAlign=middle;resizable=0;points=[];" vertex="1" connectable="0" parent="27">
                    <mxGeometry x="0.1382" y="1" relative="1" as="geometry">
                        <mxPoint x="8" y="-89" as="offset"/>
                    </mxGeometry>
                </mxCell>
                <mxCell id="29" value="" style="html=1;rounded=1;edgeStyle=orthogonalEdgeStyle;dashed=0;startArrow=ERzeroToMany;endArrow=ERmandOne;endSize=22;strokeColor=#595959;startFill=0;startSize=17;endFill=0;strokeWidth=4;entryX=0.079;entryY=1.025;entryDx=0;entryDy=0;entryPerimeter=0;" edge="1" parent="1" target="node6">
                    <mxGeometry width="50" height="50" relative="1" as="geometry">
                        <Array as="points">
                            <mxPoint x="142" y="-30"/>
                        </Array>
                        <mxPoint x="-20" y="-30" as="sourcePoint"/>
                        <mxPoint x="223" y="-24.05000000000001" as="targetPoint"/>
                    </mxGeometry>
                </mxCell>
                <mxCell id="30" value="судить" style="edgeLabel;html=1;align=center;verticalAlign=middle;resizable=0;points=[];" vertex="1" connectable="0" parent="29">
                    <mxGeometry x="0.1382" y="1" relative="1" as="geometry">
                        <mxPoint as="offset"/>
                    </mxGeometry>
                </mxCell>
            </root>
        </mxGraphModel>
    </diagram>
</mxfile>